<svg preserveAspectRatio="none" overflow="visible" style="display: block;" width="121.578" height="92" viewBox="0 0 121.578 92" fill="none" xmlns="http://www.w3.org/2000/svg">
<g id="Logo">
<path id="G" d="M35.7609 69.9347C34.7528 75.3642 29.9842 79.4737 24.254 79.4737C18.5237 79.4737 13.4177 74.8442 12.6543 69.299C12.5847 68.8021 12.5488 68.2989 12.5488 67.7895C12.5488 67.28 12.5847 66.7368 12.6543 66.2253C13.2912 61.4611 16.807 57.6063 21.3962 56.4568C21.6261 56.4 21.5987 56.0674 21.3646 56.04C18.2411 55.6695 15.299 54.7074 12.6543 53.2653C10.9965 52.3642 9.45483 51.2737 8.05865 50.0232C7.9785 49.9516 7.85407 49.9495 7.77604 50.0232C2.99484 54.4463 0 60.7705 0 67.7895C0 76.9663 5.11443 84.9495 12.6543 89.0547C16.1004 90.9326 20.0507 92 24.254 92C28.4573 92 32.3379 90.9516 35.7609 89.1053C42.6828 85.3747 47.5821 78.3832 48.3899 70.1916V0.492632C48.3899 0.221053 48.1684 0 47.8963 0H36.2544C35.9824 0 35.7609 0.221053 35.7609 0.492632V6.89474C32.3379 5.04842 28.4193 4 24.254 4C20.0886 4 16.1004 5.06737 12.6543 6.94526C5.11443 11.0505 0 19.0337 0 28.2105C0 28.8484 0.0253085 29.48 0.0738165 30.1053C0.645367 37.4968 4.54498 43.9579 10.2774 48C11.0387 48.5368 11.8317 49.0295 12.6543 49.4758C16.1004 51.3537 20.0507 52.4211 24.254 52.4211C28.4573 52.4211 32.3379 51.3726 35.7609 49.5263V69.9347ZM24.1485 39.6842C17.8003 39.6842 12.6543 34.2863 12.6543 28.2105C12.6543 22.1347 17.8003 16.7368 24.1485 16.7368C30.4967 16.7368 35.6428 21.8737 35.6428 28.2105C35.6428 34.5474 30.4967 39.6842 24.1485 39.6842Z" fill="#F2E4DC"/>
<path id="I" d="M53.4663 58.9495V21.6863C53.4663 21.4674 53.6435 21.2884 53.8649 21.2884H65.7789C65.9982 21.2884 66.1775 21.4653 66.1775 21.6863V58.9516C66.1775 59.1705 66.0003 59.3495 65.7789 59.3495H53.8649C53.6456 59.3495 53.4663 59.1726 53.4663 58.9516V58.9495Z" fill="#F2E4DC"/>
<path id="Dot" d="M59.7914 0.145258C62.1261 0.145258 64.1212 0.972626 65.7789 2.62526C67.4366 4.27999 68.2655 6.27157 68.2655 8.6021C68.2655 10.9326 67.4366 12.9242 65.7789 14.5789C64.1212 16.2337 62.1261 17.0589 59.7914 17.0589C57.4567 17.0589 55.4615 16.2316 53.8038 14.5789C52.1461 12.9263 51.3193 10.9326 51.3193 8.6021C51.3193 6.27157 52.1461 4.27999 53.8038 2.62526C55.4594 0.972626 57.4567 0.145258 59.7914 0.145258Z" fill="#F2E4DC"/>
<path id="U" d="M108.869 35.0463V0.608416C108.869 0.351573 109.078 0.145258 109.333 0.145258H121.114C121.371 0.145258 121.578 0.353679 121.578 0.608416V35.0463C121.578 39.52 120.477 43.5979 118.273 47.2821C116.069 50.9663 113.133 53.8989 109.461 56.0779C105.79 58.2589 101.694 59.3474 97.1763 59.3474C92.6587 59.3474 88.6093 58.2568 84.9185 56.0779C81.2277 53.8989 78.2898 50.9663 76.1069 47.2821C73.922 43.5979 72.8316 39.52 72.8316 35.0463V0.608416C72.8316 0.351573 73.0404 0.145258 73.2956 0.145258H85.0767C85.334 0.145258 85.5407 0.353679 85.5407 0.608416V35.0463C85.5407 38.2421 86.6796 40.9768 88.9573 43.2505C91.2351 45.5242 93.9747 46.661 97.1763 46.661C100.378 46.661 103.172 45.5242 105.452 43.2505C107.732 40.9768 108.869 38.2421 108.869 35.0463Z" fill="#F2E4DC"/>
</g>
</svg>
